<svg xmlns="http://www.w3.org/2000/svg" viewBox="0 0 1200 630" width="1200" height="630">
  <defs>
    <radialGradient id="bg" cx="72%" cy="38%" r="55%">
      <stop offset="0%" stop-color="#1a2b52"/>
      <stop offset="100%" stop-color="#0a1228"/>
    </radialGradient>
    <radialGradient id="bell" cx="50%" cy="35%" r="65%">
      <stop offset="0%" stop-color="#bdeef5"/>
      <stop offset="45%" stop-color="#7fd8e8"/>
      <stop offset="100%" stop-color="#4a9fc4"/>
    </radialGradient>
    <radialGradient id="shine" cx="48%" cy="24%" r="35%">
      <stop offset="0%" stop-color="rgba(255,255,255,0.45)"/>
      <stop offset="100%" stop-color="rgba(255,255,255,0)"/>
    </radialGradient>
    <linearGradient id="tent" x1="0" y1="0" x2="0" y2="1">
      <stop offset="0%" stop-color="#7fd8e8" stop-opacity="0.85"/>
      <stop offset="100%" stop-color="#7fd8e8" stop-opacity="0"/>
    </linearGradient>
    <filter id="aura" x="-80%" y="-80%" width="260%" height="260%">
      <feGaussianBlur stdDeviation="28"/>
    </filter>
  </defs>

  <rect width="1200" height="630" fill="url(#bg)"/>

  <!-- OU¹: -->
  <rect x="980" y="0" width="220" height="630" fill="rgba(127,216,232,0.04)" stroke="rgba(127,216,232,0.12)" stroke-width="2"/>
  <text x="72" y="96" fill="#dce7f5" font-family="system-ui, -apple-system, sans-serif" font-size="42" font-weight="700">OU¹„j4</text>
  <text x="72" y="142" fill="#8fa4c4" font-family="system-ui, -apple-system, sans-serif" font-size="24">NSp	¹L</text>

  <!-- 4Í`ó¹	 -->
  <g transform="translate(930 250) rotate(-12 90 120)">
    <ellipse cx="90" cy="95" rx="95" ry="75" fill="#7fd8e8" opacity="0.35" filter="url(#aura)"/>
    <path d="M55 150 C48 190, 52 230, 46 280" stroke="url(#tent)" stroke-width="5" stroke-linecap="round" fill="none"/>
    <path d="M78 148 C74 192, 78 236, 74 286" stroke="url(#tent)" stroke-width="5" stroke-linecap="round" fill="none"/>
    <path d="M102 147 C106 192, 104 238, 105 288" stroke="url(#tent)" stroke-width="5" stroke-linecap="round" fill="none"/>
    <path d="M126 148 C132 190, 128 232, 134 282" stroke="url(#tent)" stroke-width="5" stroke-linecap="round" fill="none"/>
    <ellipse cx="90" cy="72" rx="72" ry="62" fill="url(#bell)"/>
    <ellipse cx="90" cy="72" rx="72" ry="62" fill="url(#shine)"/>
    <ellipse cx="68" cy="64" rx="8" ry="10" fill="#0a1228"/>
    <ellipse cx="112" cy="64" rx="8" ry="10" fill="#0a1228"/>
    <ellipse cx="52" cy="82" rx="10" ry="6" fill="#ff9ec4" opacity="0.45"/>
    <ellipse cx="128" cy="82" rx="10" ry="6" fill="#ff9ec4" opacity="0.45"/>
  </g>

  <text x="72" y="560" fill="#7fd8e8" font-family="system-ui, -apple-system, sans-serif" font-size="20">¶ HeÁÁƒ · jellymate-amber.vercel.app/demo</text>
</svg>
